# xmcd
#
# Track frame offsets: 
#        150
#        15509
#        29494
#        45051
#        64818
#        84940
#        98882
#        119647
#        142055
#        166145
#        184317
#        200317
#
# Disc length: 2919 seconds
#
# Revision: 2
# Processed by: cddbd v1.5.2PL0 Copyright (c) Steve Scherf et al.
# Submitted via: ExactAudioCopy v0.99pb5
#
DISCID=9a0b650c
DTITLE=Mike Henderson and The Bluebloods - Thicker Than Water
DYEAR=1998
DGENRE=Blues
TTITLE0=Keep What You Got
TTITLE1=Wouldn´t Lay My Guitar Down
TTITLE2=Whiskey Store
TTITLE3=I Need Me A Car
TTITLE4=Tears Like A River
TTITLE5=Scared Of That Child
TTITLE6=All My Money´s Gone
TTITLE7=Mister Downchild
TTITLE8=Angel Of Mercy
TTITLE9=Slow Your Motor Down
TTITLE10=Uranium Rock
TTITLE11=My Country Sugar Mama
EXTD=
EXTT0=
EXTT1=
EXTT2=
EXTT3=
EXTT4=
EXTT5=
EXTT6=
EXTT7=
EXTT8=
EXTT9=
EXTT10=
EXTT11=
PLAYORDER=
